<svg width="36" height="36" viewBox="0 0 36 36" fill="none" xmlns="http://www.w3.org/2000/svg">
<g clip-path="url(#clip0_8_149)">
<path d="M34.4753 3.39771H1.53207C0.689065 3.39771 0 4.08677 0 4.92978V31.0703C0 31.9133 0.689065 32.6024 1.53207 32.6024H34.3946C35.2376 32.6024 35.9267 31.9133 36 31.1509V4.92245C36 4.08677 35.3109 3.39771 34.4753 3.39771ZM17.967 20.4411L4.94075 6.37388H30.9933L17.967 20.4411ZM32.9432 8.74896V26.8553L25.1509 17.1497L32.9432 8.74896ZM11.0104 17.3843L2.98351 27.0092V8.74896L11.0104 17.3843ZM13.0776 19.5981L16.8968 23.6518C17.5052 24.2603 18.5754 24.2603 19.1106 23.6518L23.0837 19.3708L31.2865 29.6115H4.72083L13.0776 19.5981Z" fill="#D4A94F"/>
</g>
<defs>
<clipPath id="clip0_8_149">
<rect width="36" height="36" fill="white"/>
</clipPath>
</defs>
</svg>
