<svg width="36" height="36" viewBox="0 0 36 36" fill="none" xmlns="http://www.w3.org/2000/svg">
<g clip-path="url(#clip0_8_154)">
<path d="M18 0C11.6472 0 6.4979 5.14926 6.4979 11.5021C6.4979 14.2416 7.46119 16.7535 9.06179 18.728C9.57774 19.3635 10.4409 20.3641 10.8908 21.0483C13.4814 24.984 16.805 30.6999 17.7736 35.3907C17.9397 36.1917 18.14 36.2057 18.3557 35.4167C19.0465 32.8874 20.8382 27.361 24.5383 21.5784C24.9795 20.8888 25.874 19.9236 26.4294 19.3228C27.2337 18.4516 27.9032 17.4544 28.4119 16.367C29.1054 14.8837 29.502 13.2416 29.502 11.5034C29.502 5.14987 24.3527 0 18 0ZM18 17.7166C14.4542 17.7166 11.5798 14.8422 11.5798 11.2964C11.5798 7.75119 14.4542 4.87693 18 4.87693C21.5458 4.87693 24.4202 7.75131 24.4202 11.2964C24.4202 14.8424 21.5458 17.7166 18 17.7166Z" fill="#D4A94F"/>
<path d="M18 13.7395C19.4746 13.7395 20.67 12.5441 20.67 11.0695C20.67 9.59484 19.4746 8.39941 18 8.39941C16.5254 8.39941 15.3299 9.59484 15.3299 11.0695C15.3299 12.5441 16.5254 13.7395 18 13.7395Z" fill="#D4A94F"/>
</g>
<defs>
<clipPath id="clip0_8_154">
<rect width="36" height="36" fill="white"/>
</clipPath>
</defs>
</svg>
